# xmcd CD database file
#
# Track frame offsets:
#	150
#	13937
#	29887
#	48800
#	61390
#	77195
#	93282
#	109215
#	123825
#	139582
#
# Disc length: 2106 seconds
#
# Revision: 1
# Processed by: cddbd v1.5.2PL0 Copyright (c) Steve Scherf et al.
# Submitted via: CDex 1.51
#
DISCID=8308380a
DTITLE=Lee Greenwood - Same River, Different Bridge
DYEAR=2000
DGENRE=Country
TTITLE0=Gotta Get Your Heart Right
TTITLE1=I've Loved You Forever
TTITLE2=The Only Thing I Care About
TTITLE3=I'll Be Missin' You
TTITLE4=Over Being Over You
TTITLE5=Out Of Style
TTITLE6=This World Ain't Big Enough
TTITLE7=You
TTITLE8=Same River, Different Bridge
TTITLE9=I'm Trying
EXTD=YEAR: 2000
EXTT0=
EXTT1=
EXTT2=
EXTT3=
EXTT4=
EXTT5=
EXTT6=
EXTT7=
EXTT8=
EXTT9=
PLAYORDER=
